HIERARCHY
ROOT RootJoint
{
    OFFSET   0.000000   0.000000   0.000000
    CHANNELS 6 Xposition Yposition Zposition Xrotation Yrotation Zrotation
    JOINT pelvis_lowerback
    {
        OFFSET   0.000000   0.093605   0.000000
        CHANNELS 3 Xrotation Yrotation Zrotation
        JOINT lowerback_torso
        {
            OFFSET   0.000000   0.100000   0.000000
            CHANNELS 3 Xrotation Yrotation Zrotation
            JOINT torso_head
            {
                OFFSET   0.000000   0.282350   0.000000
                CHANNELS 3 Xrotation Yrotation Zrotation
                End Site
                {
                    OFFSET   0.000000   0.192650   0.000000
                }
            }
            JOINT rTorso_Clavicle
            {
                OFFSET  -0.001000   0.157500   0.000000
                CHANNELS 3 Xrotation Yrotation Zrotation
                JOINT rShoulder
                {
                    OFFSET  -0.117647   0.000000   0.000000
                    CHANNELS 3 Xrotation Yrotation Zrotation
                    JOINT rElbow
                    {
                        OFFSET  -0.245000   0.000000   0.000000
                        CHANNELS 3 Xrotation Yrotation Zrotation
                        JOINT rWrist
                        {
                            OFFSET  -0.240000   0.000000   0.000000
                            CHANNELS 3 Xrotation Yrotation Zrotation
                            End Site
                            {
                                OFFSET  -0.116353  -0.002500   0.000000
                            }
                        }
                    }
                }
            }
            JOINT lTorso_Clavicle
            {
                OFFSET   0.001000   0.157500   0.000000
                CHANNELS 3 Xrotation Yrotation Zrotation
                JOINT lShoulder
                {
                    OFFSET   0.117647   0.000000   0.000000
                    CHANNELS 3 Xrotation Yrotation Zrotation
                    JOINT lElbow
                    {
                        OFFSET   0.245000   0.000000   0.000000
                        CHANNELS 3 Xrotation Yrotation Zrotation
                        JOINT lWrist
                        {
                            OFFSET   0.240000   0.000000   0.000000
                            CHANNELS 3 Xrotation Yrotation Zrotation
                            End Site
                            {
                                OFFSET   0.116353  -0.002500   0.000000
                            }
                        }
                    }
                }
            }
        }
    }
    JOINT rHip
    {
        OFFSET  -0.100000  -0.051395   0.000000
        CHANNELS 3 Xrotation Yrotation Zrotation
        JOINT rKnee
        {
            OFFSET   0.000000  -0.410000   0.000000
            CHANNELS 3 Xrotation Yrotation Zrotation
            JOINT rAnkle
            {
                OFFSET   0.000000  -0.390000   0.000000
                CHANNELS 3 Xrotation Yrotation Zrotation
                JOINT rToeJoint
                {
                    OFFSET   0.000000  -0.050000   0.130000
                    CHANNELS 3 Xrotation Yrotation Zrotation
                    End Site
                    {
                        OFFSET  -0.010000   0.002000   0.060000
                    }
                }
            }
        }
    }
    JOINT lHip
    {
        OFFSET   0.100000  -0.051395   0.000000
        CHANNELS 3 Xrotation Yrotation Zrotation
        JOINT lKnee
        {
            OFFSET   0.000000  -0.410000   0.000000
            CHANNELS 3 Xrotation Yrotation Zrotation
            JOINT lAnkle
            {
                OFFSET   0.000000  -0.390000   0.000000
                CHANNELS 3 Xrotation Yrotation Zrotation
                JOINT lToeJoint
                {
                    OFFSET   0.000000  -0.050000   0.130000
                    CHANNELS 3 Xrotation Yrotation Zrotation
                    End Site
                    {
                        OFFSET   0.010000   0.002000   0.060000
                    }
                }
            }
        }
    }
}
MOTION
Frames: 11
Frame Time:   0.008333
 -2.436732   0.916082   4.689812  -9.094513  -0.569742  -0.097299   9.668253  -2.123809  -0.280609   6.037770  -2.393010   1.546156  -0.399043  -0.994264   1.474769   3.053860  -3.575420  10.748465   3.188409  -0.467878  39.979889  -0.027869  22.743927   0.028008   2.741166   0.928837   1.491873   4.880356   2.295271 -11.049213   3.644425  -4.439662 -47.061066   0.000324 -28.619953   0.005946   4.146006  -3.434698  -2.029146   1.307474  -1.061982  -2.023670  12.909855   0.000271   0.000377  -4.549701  -0.177102   1.874603  -0.885186   0.000001  -0.000018  11.634959   2.138026   9.796391  18.278041   0.000029   0.000204  -8.723348   3.796364  -1.766671  -4.241875   0.000284   0.002012
 -2.436565   0.916326   4.691432  -9.070371  -0.674979  -0.037856   9.603198  -2.028221  -0.245740   5.996152  -2.336277   1.572031  -0.323485  -1.045329   1.561198   2.785067  -3.485615  10.814691   2.299463  -0.382236  39.504458  -0.031729  24.500571   0.034569   2.682391   0.768979   1.335612   4.964929   2.424461 -11.152468   3.841396  -4.222028 -47.115633   0.000560 -27.907042   0.006160   4.143525  -3.416038  -2.157666   1.435478  -1.023937  -2.108415  12.801830   0.000205   0.000363  -4.597546  -0.113816   1.890333  -0.881930   0.000001  -0.000014  11.624452   2.382815   9.651088  18.048239  -0.000196  -0.000081  -8.536861   3.994565  -1.757551  -4.429036   0.000131   0.001056
 -2.436327   0.916555   4.692967  -9.039929  -0.770529   0.020446   9.536171  -1.945502  -0.205215   5.945957  -2.277383   1.599367  -0.247510  -1.098225   1.646797   2.490503  -3.374028  10.868460   1.432998  -0.256527  39.055753  -0.034445  26.178641   0.039055   2.612230   0.844216   1.136304   5.055934   2.547371 -11.254019   4.036592  -4.010029 -47.168526   0.000735 -27.228916   0.006196   4.146266  -3.319515  -2.299137   1.548983  -0.989735  -2.196473  12.699722   0.000148   0.000344  -4.642767  -0.055736   1.911622  -0.879325   0.000001  -0.000012  11.618463   2.616002   9.505796  17.811766  -0.000383  -0.000308  -8.363262   4.183496  -1.748132  -4.598299   0.000017   0.000363
 -2.436037   0.916767   4.694437  -9.006331  -0.844511   0.076734   9.467578  -1.858296  -0.160086   5.888610  -2.208245   1.628769  -0.176279  -1.149063   1.728810   2.195499  -3.248659  10.913997   0.609794  -0.114836  38.635495  -0.035817  27.755784   0.041143   2.542043   1.007071   0.925097   5.142321   2.661473 -11.349362   4.220265  -3.811581 -47.219111   0.000932 -26.594444   0.006300   4.150943  -3.204757  -2.444283   1.655940  -0.965252  -2.284440  12.600603   0.000098   0.000317  -4.687033  -0.009226   1.937193  -0.877241   0.000001  -0.000009  11.612912   2.832694   9.366137  17.587103  -0.000523  -0.000486  -8.202156   4.358518  -1.740400  -4.762496  -0.000073  -0.000163
 -2.435707   0.916963   4.695852  -8.970946  -0.893683   0.131473   9.397186  -1.764472  -0.112613   5.826325  -2.130301   1.659227  -0.110305  -1.196618   1.806596   1.909377  -3.118024  10.953226  -0.165581   0.033033  38.243129  -0.036044  29.232889   0.041364   2.474666   1.200512   0.714291   5.222402   2.768071 -11.437125   4.391290  -3.626536 -47.266100   0.001138 -26.002580   0.006468   4.155879  -3.092692  -2.583709   1.758821  -0.952241  -2.371676  12.504960   0.000056   0.000284  -4.731908   0.024071   1.966264  -0.875574   0.000001  -0.000007  11.608259   3.033945   9.232659  17.376332  -0.000625  -0.000628  -8.052800   4.520403  -1.734255  -4.924626  -0.000146  -0.000572
 -2.435343   0.917142   4.697216  -8.934261  -0.918810   0.184634   9.325311  -1.665503  -0.064575   5.761021  -2.046275   1.689829  -0.049472  -1.240736   1.880006   1.636124  -2.987101  10.987233  -0.892862   0.181975  37.877429  -0.035375  30.614279   0.040267   2.410719   1.403522   0.508460   5.296772   2.868573 -11.517069   4.550568  -3.453587 -47.309021   0.001321 -25.450653   0.006644   4.160557  -2.987764  -2.713634   1.858087  -0.950400  -2.457610  12.413202   0.000019   0.000246  -4.777821   0.044558   1.998209  -0.874241   0.000001  -0.000006  11.605347   3.221401   9.105345  17.179560  -0.000696  -0.000742  -7.914573   4.670507  -1.729379  -5.086995  -0.000205  -0.000897
 -2.434949   0.917305   4.698528  -8.896300  -0.922455   0.235871   9.252604  -1.563403  -0.017274   5.694310  -1.958635   1.719877   0.006505  -1.281564   1.949080   1.377532  -2.858866  11.016861  -1.573354   0.328954  37.536967  -0.034046  31.905139   0.038294   2.350248   1.607080   0.309575   5.366300   2.963954 -11.589581   4.699254  -3.291509 -47.347943   0.001460 -24.935833   0.006780   4.164866  -2.889769  -2.833360   1.953329  -0.958508  -2.541651  12.325393  -0.000011   0.000206  -4.824461   0.053572   2.032517  -0.873174   0.000000  -0.000005  11.604994   3.396476   8.984133  16.996601  -0.000741  -0.000829  -7.786918   4.810022  -1.725511  -5.251801  -0.000253  -0.001160
 -2.434528   0.917399   4.699888  -8.869244  -0.975122   0.275674   9.158283  -1.454524   0.042565   5.669520  -1.884947   1.757324   0.063495  -1.334517   2.031920   1.145393  -2.784518  11.080152  -2.308222   0.453287  37.158427  -0.036317  33.662240   0.041374   2.324901   1.517756   0.186217   5.416024   3.065606 -11.680700   4.836304  -3.108255 -47.376239   0.001733 -24.308202   0.007140   4.191350  -2.849250  -2.970507   2.019475  -0.924974  -2.619267  12.314828  -0.000012   0.000166  -4.908344   0.072002   2.068142  -0.872320   0.000000  -0.000004  11.753121   3.631276   8.860417  16.759489  -0.000813  -0.000949  -7.469018   4.924498  -1.707591  -6.360710  -0.000369  -0.003604
 -2.434085   0.917455   4.701182  -8.828092  -0.993199   0.306641   9.059555  -1.362600   0.116127   5.635240  -1.816965   1.803682   0.119615  -1.386864   2.116489   0.903814  -2.701983  11.128554  -3.015285   0.597710  36.800870  -0.037576  35.331090   0.042974   2.296723   1.607131   0.034082   5.465999   3.159083 -11.768814   4.968117  -2.933380 -47.402244   0.001950 -23.714983   0.007325   4.220432  -2.758537  -3.105566   2.063368  -0.909610  -2.686052  12.319349  -0.000008   0.000133  -4.998394   0.074659   2.105145  -0.871638   0.000000  -0.000003  11.914519   3.855927   8.750220  16.490051  -0.000911  -0.001125  -7.170815   5.034891  -1.690345  -7.456201  -0.000398  -0.005656
 -2.433591   0.917408   4.702373  -8.787133  -0.970017   0.293608   8.974854  -1.274948   0.233462   5.597045  -1.747760   1.867438   0.171538  -1.436506   2.199427   0.663732  -2.610811  11.155509  -3.685787   0.748624  36.458311  -0.037736  36.896277   0.042820   2.269149   1.756669  -0.134400   5.508426   3.241375 -11.850839   5.087929  -2.773694 -47.430326   0.002128 -23.163200   0.007423   4.248995  -2.668574  -3.240388   2.095985  -0.916372  -2.706410  12.343323   0.000002   0.000109  -5.095090   0.060245   2.143191  -0.871091   0.000000  -0.000002  12.034931   4.056859   8.674297  16.182945  -0.001082  -0.001340  -6.741002   5.132710  -1.657766  -6.772315  -0.000275  -0.002798
 -2.433094   0.917412   4.703540  -8.745179  -0.931444   0.310709   8.886629  -1.183677   0.314059   5.558841  -1.674679   1.924774   0.221234  -1.482628   2.279386   0.435362  -2.518236  11.190931  -4.313756   0.898131  36.144710  -0.036793  38.359070   0.041447   2.243721   1.920545  -0.302393   5.547084   3.318670 -11.924142   5.199153  -2.623398 -47.448596   0.002236 -22.647025   0.007482   4.276896  -2.577814  -3.356983   2.132998  -0.930232  -2.757397  12.357574   0.000007   0.000089  -5.187522   0.036317   2.183657  -0.870655   0.000000  -0.000002  12.176866   4.264077   8.586288  15.941664  -0.001122  -0.001478  -6.521990   5.247946  -1.642294  -8.207293  -0.000470  -0.006389
